<svg width="24" height="24" viewBox="0 0 24 24" fill="none" xmlns="http://www.w3.org/2000/svg">
<path d="M12 1.65527C9.95397 1.65527 7.9539 2.26199 6.25271 3.39869C4.55151 4.5354 3.22558 6.15104 2.44261 8.04131C1.65963 9.93158 1.45477 12.0116 1.85393 14.0183C2.25309 16.025 3.23834 17.8682 4.68509 19.315C6.13184 20.7617 7.97511 21.747 9.98181 22.1462C11.9885 22.5453 14.0685 22.3405 15.9588 21.5575C17.849 20.7745 19.4647 19.4486 20.6014 17.7474C21.7381 16.0462 22.3448 14.0461 22.3448 12.0001C22.3417 9.25742 21.2509 6.62796 19.3115 4.68859C17.3721 2.74922 14.7427 1.65834 12 1.65527ZM12 20.6898C10.2813 20.6898 8.60128 20.1801 7.17227 19.2253C5.74326 18.2705 4.62949 16.9133 3.97179 15.3255C3.31409 13.7377 3.14201 11.9905 3.4773 10.3048C3.81259 8.61921 4.6402 7.07086 5.85547 5.85559C7.07074 4.64032 8.61909 3.81271 10.3047 3.47742C11.9903 3.14212 13.7375 3.31421 15.3254 3.97191C16.9132 4.62961 18.2703 5.74338 19.2252 7.17239C20.18 8.60139 20.6896 10.2814 20.6896 12.0001C20.687 14.3039 19.7707 16.5127 18.1416 18.1417C16.5125 19.7708 14.3038 20.6871 12 20.6898ZM12 8.27596C12.3273 8.27596 12.6474 8.17889 12.9195 7.99702C13.1917 7.81514 13.4039 7.55664 13.5292 7.2542C13.6544 6.95175 13.6872 6.61895 13.6234 6.29788C13.5595 5.97681 13.4018 5.68189 13.1704 5.45041C12.9389 5.21893 12.644 5.06129 12.3229 4.99742C12.0018 4.93356 11.669 4.96633 11.3666 5.09161C11.0641 5.21689 10.8056 5.42903 10.6238 5.70123C10.4419 5.97342 10.3448 6.29343 10.3448 6.62079C10.3448 7.05977 10.5192 7.48077 10.8296 7.79117C11.14 8.10158 11.561 8.27596 12 8.27596ZM16.4325 8.28424L12.1026 8.91486C12.0345 8.92476 11.9654 8.92476 11.8974 8.91486L7.56743 8.28424C7.35014 8.25263 7.12919 8.30864 6.95319 8.43994C6.77719 8.57124 6.66056 8.76708 6.62895 8.98438C6.59734 9.20167 6.65335 9.42262 6.78465 9.59862C6.91595 9.77462 7.11179 9.89125 7.32909 9.92286L9.99392 10.3102C10.0425 10.3171 10.0869 10.3414 10.1189 10.3785C10.151 10.4156 10.1686 10.4631 10.1685 10.5121V13.7058L10.0982 14.0318L8.3884 17.7899C8.27777 17.9795 8.24702 18.2054 8.30289 18.4177C8.35876 18.63 8.49669 18.8114 8.68633 18.922C8.87597 19.0327 9.10178 19.0634 9.3141 19.0075C9.52642 18.9517 9.70784 18.8137 9.81847 18.6241L11.7997 14.5002C11.8184 14.4612 11.8478 14.4283 11.8845 14.4052C11.9211 14.3822 11.9636 14.37 12.0069 14.3701C12.0502 14.3702 12.0925 14.3826 12.1291 14.4057C12.1657 14.4289 12.1949 14.462 12.2135 14.5011L14.1815 18.6241C14.2921 18.8137 14.4735 18.9517 14.6859 19.0075C14.8982 19.0634 15.124 19.0327 15.3136 18.922C15.5033 18.8114 15.6412 18.63 15.6971 18.4177C15.753 18.2054 15.7222 17.9795 15.6116 17.7899L13.8753 13.9722L13.8314 13.7695V10.5121C13.8313 10.4632 13.8488 10.4158 13.8807 10.3788C13.9126 10.3417 13.9568 10.3173 14.0052 10.3102L16.6701 9.92286C16.7776 9.90726 16.8811 9.87063 16.9745 9.81505C17.068 9.75946 17.1496 9.68602 17.2146 9.59891C17.2797 9.51181 17.3269 9.41274 17.3537 9.30737C17.3805 9.202 17.3862 9.09238 17.3706 8.98479C17.355 8.8772 17.3184 8.77373 17.2628 8.68029C17.2072 8.58686 17.1338 8.50529 17.0467 8.44023C16.9596 8.37518 16.8605 8.32792 16.7551 8.30116C16.6497 8.27439 16.5401 8.26864 16.4325 8.28424Z" fill="#E8F5E9"/>
</svg>
