<svg width="26" height="20" viewBox="0 0 26 20" fill="none" xmlns="http://www.w3.org/2000/svg">
<path d="M12.6553 5.18852L4.33368 11.9683V19.2856C4.33368 19.4751 4.40976 19.6568 4.54519 19.7908C4.68063 19.9247 4.86431 20 5.05584 20L10.1137 19.9871C10.3046 19.9861 10.4874 19.9104 10.622 19.7766C10.7567 19.6427 10.8323 19.4615 10.8323 19.2727V14.9994C10.8323 14.81 10.9084 14.6283 11.0438 14.4943C11.1792 14.3603 11.3629 14.2851 11.5544 14.2851H14.4431C14.6346 14.2851 14.8183 14.3603 14.9538 14.4943C15.0892 14.6283 15.1653 14.81 15.1653 14.9994V19.2696C15.165 19.3636 15.1834 19.4567 15.2196 19.5436C15.2558 19.6306 15.3089 19.7096 15.376 19.7761C15.4431 19.8427 15.5228 19.8955 15.6106 19.9316C15.6983 19.9676 15.7924 19.9862 15.8874 19.9862L20.9435 20C21.135 20 21.3187 19.9247 21.4542 19.7908C21.5896 19.6568 21.6657 19.4751 21.6657 19.2856V11.9634L13.3459 5.18852C13.2481 5.11054 13.1262 5.06801 13.0006 5.06801C12.8749 5.06801 12.7531 5.11054 12.6553 5.18852ZM25.8001 9.79663L22.0268 6.71995V0.535774C22.0268 0.393678 21.9697 0.257402 21.8681 0.156925C21.7665 0.0564476 21.6288 0 21.4851 0H18.9575C18.8139 0 18.6761 0.0564476 18.5746 0.156925C18.473 0.257402 18.4159 0.393678 18.4159 0.535774V3.77765L14.3749 0.488894C13.9872 0.173224 13.5005 0.000631028 12.9983 0.000631028C12.4961 0.000631028 12.0095 0.173224 11.6217 0.488894L0.196564 9.79663C0.141719 9.84147 0.0963433 9.89656 0.0630297 9.95876C0.0297162 10.021 0.0091177 10.089 0.0024112 10.1591C-0.00429529 10.2292 0.00302166 10.2999 0.023944 10.3671C0.0448663 10.4344 0.0789839 10.497 0.124347 10.5512L1.2753 11.9353C1.32054 11.9897 1.37619 12.0347 1.43905 12.0678C1.50192 12.101 1.57077 12.1215 1.64166 12.1282C1.71256 12.135 1.7841 12.1279 1.8522 12.1072C1.92031 12.0866 1.98363 12.0529 2.03854 12.008L12.6553 3.35796C12.7531 3.27998 12.8749 3.23745 13.0006 3.23745C13.1262 3.23745 13.2481 3.27998 13.3459 3.35796L23.9631 12.008C24.0179 12.0529 24.0811 12.0867 24.1491 12.1074C24.2171 12.1281 24.2886 12.1353 24.3594 12.1287C24.4303 12.122 24.4991 12.1016 24.562 12.0687C24.6248 12.0357 24.6805 11.9909 24.7259 11.9366L25.8768 10.5525C25.9221 10.498 25.9561 10.4351 25.9768 10.3675C25.9974 10.3 26.0044 10.229 25.9973 10.1588C25.9902 10.0886 25.9691 10.0204 25.9352 9.95824C25.9014 9.89609 25.8554 9.84117 25.8001 9.79663Z" fill="#E8F5E9"/>
</svg>
